<mxfile host="app.diagrams.net" agent="Mozilla/5.0 (X11; Ubuntu; Linux x86_64; rv:131.0) Gecko/20100101 Firefox/131.0" version="24.8.3">
  <diagram name="Page-1" id="u3h2Vz4Sz9rNpFTfbxCI">
    <mxGraphModel dx="2004" dy="1125" grid="1" gridSize="10" guides="1" tooltips="1" connect="1" arrows="1" fold="1" page="1" pageScale="1" pageWidth="850" pageHeight="1100" math="0" shadow="0">
      <root>
        <mxCell id="0" />
        <mxCell id="1" parent="0" />
        <mxCell id="oLIsTQn6fQdKNHKasg9u-1" value="" style="endArrow=classic;html=1;rounded=0;" edge="1" parent="1">
          <mxGeometry width="50" height="50" relative="1" as="geometry">
            <mxPoint x="120" y="160" as="sourcePoint" />
            <mxPoint x="120" y="600" as="targetPoint" />
            <Array as="points" />
          </mxGeometry>
        </mxCell>
        <mxCell id="oLIsTQn6fQdKNHKasg9u-2" value="" style="endArrow=classic;html=1;rounded=0;" edge="1" parent="1">
          <mxGeometry width="50" height="50" relative="1" as="geometry">
            <mxPoint x="560" y="600" as="sourcePoint" />
            <mxPoint x="560" y="600" as="targetPoint" />
            <Array as="points">
              <mxPoint x="560" y="160" />
            </Array>
          </mxGeometry>
        </mxCell>
        <mxCell id="oLIsTQn6fQdKNHKasg9u-4" value="TCPLS Client" style="text;html=1;align=center;verticalAlign=middle;whiteSpace=wrap;rounded=0;" vertex="1" parent="1">
          <mxGeometry x="30" y="100" width="110" height="50" as="geometry" />
        </mxCell>
        <mxCell id="oLIsTQn6fQdKNHKasg9u-5" value="TCPLS Server" style="text;html=1;align=center;verticalAlign=middle;whiteSpace=wrap;rounded=0;" vertex="1" parent="1">
          <mxGeometry x="580" y="120" width="100" height="30" as="geometry" />
        </mxCell>
        <mxCell id="oLIsTQn6fQdKNHKasg9u-6" value="" style="endArrow=classic;html=1;rounded=0;" edge="1" parent="1">
          <mxGeometry width="50" height="50" relative="1" as="geometry">
            <mxPoint x="120" y="200" as="sourcePoint" />
            <mxPoint x="560" y="200" as="targetPoint" />
            <Array as="points">
              <mxPoint x="200" y="200" />
            </Array>
          </mxGeometry>
        </mxCell>
        <mxCell id="oLIsTQn6fQdKNHKasg9u-7" value="ClientHello (TCPLS ext. + TCPLS Join)" style="text;html=1;align=center;verticalAlign=middle;whiteSpace=wrap;rounded=0;" vertex="1" parent="1">
          <mxGeometry x="130" y="160" width="260" height="30" as="geometry" />
        </mxCell>
        <mxCell id="oLIsTQn6fQdKNHKasg9u-8" value="" style="endArrow=classic;html=1;rounded=0;" edge="1" parent="1">
          <mxGeometry width="50" height="50" relative="1" as="geometry">
            <mxPoint x="560" y="320" as="sourcePoint" />
            <mxPoint x="120" y="320" as="targetPoint" />
          </mxGeometry>
        </mxCell>
        <mxCell id="oLIsTQn6fQdKNHKasg9u-9" value="Encrypted Extensions (TCPLS, TCPLS Tokens)" style="text;html=1;align=center;verticalAlign=middle;whiteSpace=wrap;rounded=0;" vertex="1" parent="1">
          <mxGeometry x="230" y="280" width="350" height="30" as="geometry" />
        </mxCell>
        <mxCell id="oLIsTQn6fQdKNHKasg9u-11" value="" style="endArrow=classic;html=1;rounded=0;" edge="1" parent="1">
          <mxGeometry width="50" height="50" relative="1" as="geometry">
            <mxPoint x="560" y="260" as="sourcePoint" />
            <mxPoint x="120" y="260" as="targetPoint" />
            <Array as="points">
              <mxPoint x="360" y="260" />
            </Array>
          </mxGeometry>
        </mxCell>
        <mxCell id="oLIsTQn6fQdKNHKasg9u-12" value="Server Hello" style="text;html=1;align=center;verticalAlign=middle;whiteSpace=wrap;rounded=0;" vertex="1" parent="1">
          <mxGeometry x="425" y="220" width="150" height="30" as="geometry" />
        </mxCell>
      </root>
    </mxGraphModel>
  </diagram>
</mxfile>
